<?xml version="1.0" encoding="UTF-8"?>
<svg xmlns="http://www.w3.org/2000/svg" viewBox="0 0 16383 16383">
  <defs>
    <style>
      .cls-1 {
        stroke-width: 5.18px;
      }

      .cls-1, .cls-2, .cls-3, .cls-4, .cls-5, .cls-6, .cls-7, .cls-8, .cls-9, .cls-10, .cls-11, .cls-12, .cls-13, .cls-14, .cls-15 {
        stroke-miterlimit: 10;
      }

      .cls-1, .cls-2, .cls-3, .cls-5, .cls-6, .cls-8, .cls-9, .cls-10, .cls-11, .cls-12, .cls-13, .cls-14, .cls-15 {
        stroke: #1d1d1b;
      }

      .cls-1, .cls-2, .cls-3, .cls-16, .cls-6, .cls-8, .cls-9, .cls-10, .cls-11, .cls-12, .cls-13, .cls-14 {
        fill: #bec0e1;
      }

      .cls-2, .cls-5 {
        stroke-width: 10px;
      }

      .cls-3 {
        stroke-width: 3.77px;
      }

      .cls-4 {
        stroke: #936037;
        stroke-width: 22.23px;
      }

      .cls-4, .cls-7, .cls-17 {
        fill: #ca9e67;
      }

      .cls-5, .cls-18 {
        fill: #612d76;
      }

      .cls-6 {
        stroke-width: 3.93px;
      }

      .cls-7 {
        stroke: #b17f4a;
        stroke-width: 11.7px;
      }

      .cls-8 {
        stroke-width: 7.16px;
      }

      .cls-9 {
        stroke-width: 3.9px;
      }

      .cls-10 {
        stroke-width: 8.7px;
      }

      .cls-19 {
        fill: #f8ecf4;
      }

      .cls-11 {
        stroke-width: 4.16px;
      }

      .cls-12 {
        stroke-width: 4.26px;
      }

      .cls-13 {
        stroke-width: 4.91px;
      }

      .cls-14 {
        stroke-width: 1.7px;
      }

      .cls-15 {
        fill: none;
        stroke-width: 30px;
      }
    </style>
  </defs>
  <g id="Morada">
    <g>
      <path id="M" class="cls-16" d="M3858.63,11811.36l-1.34,1612.8-699.55,1.43v-1612.8h-157.05l-.37,1612.8h-699.55v-2424.92h1612.8s800.68,11.44,800.68,812.12v1612.8h-699.56l.81-1612.8-156.88-1.43Z"/>
      <path id="o" class="cls-16" d="M5664.96,11812.79h-812.12v1612.8h1612.8v-812.12c0-812.12-800.68-800.68-800.68-800.68Zm403.2,1209.6h-806.4v-806.4h406.06s400.34-5.72,400.34,400.34v406.06Z"/>
      <path id="r" class="cls-16" d="M8191.5,12613.47c0-812.12-800.68-800.68-800.68-800.68h-804.05l-8.06,1612.8h647.09v-246.64c73.05,82.21,146.11,164.43,219.16,246.64h746.55l-800.68-812.12h800.68Zm-1015.95-231.85v-320.63h139.45s400.34-4.58,400.34,320.63h-539.79Z"/>
      <path id="a" class="cls-16" d="M9805.6,12109.22c-236.21-307.61-619.82-297.87-658.61-296.23h-800.68v627.68c266.89-.12,533.79-.24,800.68-.36v172.88h-800.68v812.6h1612.8v-812.12c3.33-68.86,5.69-297.13-153.51-504.45Zm-236.52,1093.3h-844.18v-377.46h844.18v377.46Z"/>
      <path id="d" class="cls-16" d="M11253.46,11012.93l-1.32,1604.39c0-15.3-4.43-801.26-819.98-800.86l-385.44,.41v1612.8h1612.8v-2416.74h-406.06Zm-278.53,2004.74h-614.24v-806.4l192.72-.2c35.48-1.55,154.69-2.33,264,81.4,150.72,115.45,157.08,295.42,157.53,319.4v405.8Z"/>
      <path id="a2" class="cls-16" d="M13239.54,12109.22c-236.21-307.61-619.82-297.87-658.61-296.23h-800.68v627.68c266.89-.12,533.79-.24,800.68-.36v172.88h-800.68v812.6h1612.8v-812.12c3.33-68.86,5.69-297.13-153.51-504.45Zm-236.52,1099.6h-844.18v-377.46h844.18v377.46Z"/>
    </g>
  </g>
  <g id="Tu">
    <g id="T">
      <path class="cls-15" d="M4687.19,13595.95h475.83s169.29,0,169.29,169.29"/>
      <line class="cls-15" x1="5009.75" y1="13595.95" x2="5009.75" y2="14241.07"/>
    </g>
    <path id="u" class="cls-15" d="M5332.31,13918.51v322.56h320.27v-172.43s23.12-152.42-160.14-152.42"/>
  </g>
  <g id="Segundo">
    <path id="S" class="cls-15" d="M6392.69,13918.51h-320.27v160.14h160.14s160.14,10.3,160.14,160.14h-320.29"/>
    <path id="e" class="cls-15" d="M6493.11,14088.37h325.09c0-168.14-167.24-169.86-167.24-169.86h-157.61v320.27h324.48"/>
    <g id="g">
      <path class="cls-15" d="M6883.72,13918.51h153.03s167.24,8.58,167.24,168.71v151.56h-320.27v-320.27Z"/>
      <polyline class="cls-15" points="7203.99 14238.79 7203.99 14416.08 6883.72 14416.08"/>
    </g>
    <path id="u-2" data-name="u" class="cls-15" d="M7286.65,13918.51v322.56h320.27v-172.43s23.12-152.42-160.14-152.42"/>
    <g id="n">
      <path class="cls-15" d="M7695.44,13884.2v366.6"/>
      <path class="cls-15" d="M7695.44,13918.51h154.18s166.1,0,166.1,160.14v168"/>
    </g>
    <path id="d-2" data-name="d" class="cls-15" d="M8444.16,13680.6v558.19h-324.85v-320.27h150.74c12.03,.45,84.86,4.36,134.65,64.99,32.43,39.49,38.13,82.39,39.46,99.72"/>
    <path id="o-2" data-name="o" class="cls-15" d="M8870.69,14238.79h-320.27v-320.27h160.14s160.14,0,160.14,160.14v160.14Z"/>
  </g>
  <g id="hogar">
    <g id="h">
      <line class="cls-15" x1="9286.21" y1="13705.48" x2="9286.21" y2="14256.8"/>
      <path class="cls-15" d="M9611.23,14256.8v-163.57s-3.91-161.28-164.38-161.28h-159.56"/>
    </g>
    <path id="o-3" data-name="o" class="cls-15" d="M10029.67,14252.23h-320.27v-320.27h160.14s160.14,0,160.14,160.14v160.14Z"/>
    <g id="g-2" data-name="g">
      <path class="cls-15" d="M10127.12,13931.95h153.03s167.24,8.58,167.24,168.71v151.56h-320.27v-320.27Z"/>
      <polyline class="cls-15" points="10447.39 14252.23 10447.39 14429.52 10127.12 14429.52"/>
    </g>
    <path id="a-2" data-name="a" class="cls-15" d="M10532.85,13931.95h148.46s171.82-4.58,171.82,160.14v164.71h-320.27v-164.71h320.27"/>
    <path class="cls-15" d="M10941.74,14265.38v-333.43h142.74s182.11,0,182.11,162.42c-84.31,0-168.63,0-252.94,0,84.31,54.14,168.63,108.29,252.94,162.43"/>
  </g>
  <g id="Hongo1">
    <path class="cls-19" d="M8093.35,6053.95c-365.28-10.83-640.63,42.4-746.8,65.26-168.27,36.24-456.81,100.79-765.5,285.7,0,0-247.41,148.2-431.2,349.35-28.89,31.62-64.22,70.28-103.71,128.49,0,0,0,0,0,0,0,0-87.55,120.38-115.27,203.39-365.9,1095.58-409.55,1687.52-409.55,1687.52-33.85,459.02-152.19,1111.8-533.87,1928.81-31.3,157.51,1.25,259.34,30.75,300.91,133.61,188.31,509.71,288.23,912.68,211.52,0,0,2172.73-227.7,4335.21,0,357.79,58.57,703.32-26.49,862.91-206.03,37.72-42.44,61.36-85.99,75.77-127.24,28.46-81.5,19.61-152.61,16.47-179.16-47.49-401.66,19.53-459.67-90.91-897.52-135.45-537.01-245.02-484.46-370.03-956.21-143.08-539.95-62.22-845.35-230.85-1242.84-108.57-255.9-266.33-476.68-266.33-476.68-33.02-46.17-75.92-102.84-128.92-165.25-28.5-33.56-110.89-128.79-222.42-230.5-23.1-21.06-213.3-192.74-463.36-333.96-559.28-315.84-1171.47-340.11-1355.06-345.55Z"/>
  </g>
  <g id="Hongo2">
    <path class="cls-5" d="M10482.96,2689.33s1841.45,1234.42,2217.07,2855c33.91,146.29,0,271.9,0,271.9-23.62,87.51-67.49,153.72-104.58,198.7-28.38,34.7-73.83,78.67-139.15,96.77-84.23,23.34-154.31-9.41-239.22-35.02-11.55-3.48-122.94-18.08-345.73-47.28-128.97-16.9-462.79-59.01-816.46-95.41-126.84-13.06-647.55-66.14-1230.78-100.96-746.75-44.57-1330.44-41.83-1730.78-41.83,0,0-780.32,1.95-2107.26,94.12-49.54,3.44-255.67,20.74-526.05,57.91-211.79,29.11-338.32,46.35-512.68,88.37-72.97,17.58-222.72,55.93-407.04,121.3-159.81,56.68-293.67,115.26-311.64,123.16-167.41,73.6-181.41,92.26-241.44,95.25-158.38,7.89-286.51-108.12-333.24-157.66-69.37-73.54-157.96-189.61-197.32-348.16-94.05-378.79,158.29-736.53,312.36-948.62,933.39-1284.9,1400.09-1927.35,1830.13-2237.98,636.25-459.59,1398.28-1010.03,2495.23-996.49,1259.93,15.56,2129.12,764.87,2388.6,1006.94Z"/>
  </g>
  <g id="Hongo3">
    <path class="cls-16" d="M4023.86,6367.93c322.7,199.88,650.9,389.54,984.61,568.99,274.47,147.6,552.66,288.27,834.55,422.03,57.45-200.54,179.87-501.41,452.21-749.92,139.89-127.65,272.34-199.39,371.15-251.72,319.62-169.26,603.83-221.41,793.78-254.72,157.35-27.6,373.49-53.59,633.48-48.64,91.29,1.74,307.23,6.35,556.67,56.09,181.88,36.27,696.67,145.35,1187.9,558.97,286.32,241.08,474.2,509.47,595.94,733.15,265.9-57.4,658.79-175,1077.81-432.56,469.47-288.57,772.02-630.08,944.34-857.9-1043.45-156.82-1866.01-227.67-2433.89-263.26-896.12-56.16-1680.77-56.91-1929.07-57.25-267.01-.37-533.86,3.9-800.55,12.8-407.39,13.6-814.43,38.01-1221.12,73.24-29.67,2.57-238.52,20.79-514.74,54.65-188.81,23.14-359.08,50.31-434.97,63.52-191.02,33.25-557.41,118.74-1098.09,372.53Z"/>
  </g>
  <g id="Hongo_4" data-name="Hongo 4">
    <path class="cls-2" d="M9111.7,4764.41c-94.12,393.01-1215.72,597.18-1463.09,244.79-100.08-142.57-36.2-346.55-14.77-414.96,95.29-304.22,419.35-553.04,784.11-522.89,431.05,35.63,752.65,447.1,693.75,693.06Z"/>
    <path class="cls-1" d="M8398.49,3694.78c-54.85,181.03-708.51,275.08-852.67,112.76-58.33-65.67-21.09-159.63-8.61-191.14,55.53-140.13,244.39-254.75,456.97-240.86,251.21,16.41,438.63,205.95,404.31,319.25Z"/>
    <path class="cls-8" d="M7246.09,3280.08c-4.46,179.52-314.66,352.44-587.48,352.66-203.6,.16-495.06-95.76-587.48-352.66-52.21-145.11-47.98-361.24,72.19-465.57,277.3-240.75,1110.18,167.56,1102.78,465.57Z"/>
    <path class="cls-9" d="M8116.68,2441.55c-2.4,98.97-169.68,194.3-316.79,194.42-109.79,.09-266.96-52.8-316.79-194.42-28.15-80-25.87-199.16,38.93-256.67,149.53-132.73,598.65,92.38,594.66,256.67Z"/>
    <path class="cls-11" d="M7441.65,5265.3c-3.01,89.76-212.04,176.22-395.88,176.33-137.2,.08-333.6-47.88-395.88-176.33-35.18-72.56-32.33-180.62,48.64-232.79,186.86-120.38,748.11,83.78,743.12,232.79Z"/>
    <path class="cls-6" d="M10199.84,5372.58c-2.68,89.76-189.11,176.22-353.07,176.33-122.36,.08-297.52-47.88-353.07-176.33-31.38-72.56-28.83-180.62,43.38-232.79,166.65-120.38,667.2,83.78,662.75,232.79Z"/>
    <path class="cls-6" d="M9535.87,4319.53c46.88-76.59,251.64-59.11,394.03,22.18,106.26,60.67,234.51,189.25,218.97,328.33-8.78,78.56-64.63,171.11-153.21,180.55-204.43,21.78-537.62-403.92-459.79-531.06Z"/>
    <path class="cls-13" d="M6501.27,3975.48c-4.19,89.76-295.69,176.22-552.07,176.33-191.32,.08-465.22-47.88-552.07-176.33-49.06-72.56-45.09-180.62,67.84-232.79,260.59-120.38,1043.26,83.78,1036.3,232.79Z"/>
    <path class="cls-3" d="M4715.59,5778.88c-3.35,66.29-236.18,130.14-440.96,130.22-152.82,.06-371.59-35.36-440.96-130.22-39.19-53.58-36.01-133.39,54.18-171.91,208.14-88.9,833.29,61.87,827.73,171.91Z"/>
    <path class="cls-12" d="M11611.96,4231.49c-2.81,100.84-198.37,197.98-370.36,198.1-128.35,.09-312.09-53.8-370.36-198.1-32.91-81.51-30.25-202.93,45.51-261.53,174.81-135.24,699.87,94.12,695.2,261.53Z"/>
    <path class="cls-2" d="M6135.63,4959.25c34.29,176.42-56.64,387.85-213.6,486.48-41.54,26.1-176.05,99.82-618.96-28.95-363.72-105.75-832.55-239.62-832.55-457.53,0-252.69,372.75-457.53,832.55-457.53,305.08,0,770.08,136.1,832.55,457.53Z"/>
    <path class="cls-10" d="M8761.88,3051.82c215.18-284.61,638.89-434.88,1025.93-323.24,405,116.82,770.06,522.99,694.79,821.14-40.24,159.39-201.71,269.73-365.26,381.5-143.42,98.01-247.72,169.28-377.79,161.11-171.25-10.76-199.86-147.47-449.32-340.67-348.15-269.63-614.62-252.88-643.93-432.87-16.8-103.16,59.16-192.34,115.59-266.97Z"/>
    <path class="cls-2" d="M12204.93,5551.94c-97.73,231.33-644.92,212.31-935.85,156.96-283.16-53.87-844.27-241.25-850.92-539.23-6.05-271.08,448.45-556.17,850.92-539.23,569.58,23.97,1049.08,653.47,935.85,921.51Z"/>
    <g>
      <path class="cls-16" d="M10492.51,7018.21s872.26-106.21,1337.96-825.19"/>
      <path class="cls-18" d="M10491.91,7013.25c107.47-47.15,217.97-85.88,329-122.94,79.35-25.53,164.35-34.54,241.84-66.51,46.49-19.08,90.4-44.07,131.33-73.19,20.12-14.47,40.47-30.47,59.6-46.31,19.28-15.77,38.53-32.14,57.7-47.95,24.19-20.13,52.58-42.31,76.69-62.58,47.17-39.51,91.78-81.58,137.65-122.44,36.41-32.85,73.19-65.51,109.17-98.98,11.61-10.91,24.59-22.77,36.07-33.84,11.82-10.92,24.35-23.19,36.08-34.24,27.26-26.09,54.37-52.52,81.63-78.73,12.56-11.77,24.56-23.86,37.61-35.24,0,0,8.39,5.44,8.39,5.44-2.76,8.28-5.79,16.42-8.92,24.54-15.59,40.43-35.46,79.24-57.39,116.58-53.39,89.32-120.32,170.98-198.74,239.57-32.5,27.96-68.05,54.54-103.55,78.62-20.45,14.17-43.94,29.31-65.12,42.59-21.91,13.61-44.95,26.1-68.02,37.6-57.74,28.25-118.75,50.82-176.65,78.11-18.87,8.74-38.78,18.29-57.27,27.75-84.41,41.53-159.98,102.1-249.25,134.13-15.91,5.89-32.76,11.09-49.06,15.77-91.13,25.71-186.32,41.36-281.29,35.19-8.75-.7-17.43-1.53-26.29-3.02l-1.21-9.93h0Z"/>
    </g>
    <g>
      <path class="cls-16" d="M4470.52,6349.45s639.53,602.59,1490.08,500.74"/>
      <path class="cls-18" d="M4473.95,6345.81c104.98,52.46,205.43,112.64,304.93,174.28,70.38,44.67,131.67,104.25,205.8,143.37,44.4,23.54,91.69,41.31,140.26,54.14,23.99,6.21,49.31,11.62,73.72,16.2,24.46,4.73,49.35,9.06,73.76,13.69,30.95,5.72,66.16,13.36,97.16,18.93,60.54,10.99,121.41,18.38,182.16,27.5,48.54,6.98,97.17,14.36,145.92,20.62,15.81,1.94,33.23,4.34,49.08,6.08,15.95,2.1,33.4,3.89,49.4,5.83,37.49,4.27,75.14,8.21,112.73,12.4,17.08,2.13,34.05,3.62,51.14,6.37,0,0,1.19,9.93,1.19,9.93-8.13,3.17-16.33,6.05-24.57,8.84-41.05,13.88-83.6,23.42-126.32,30.45-102.81,16.09-208.39,16.86-311.27,.45-42.28-7.1-85.45-17.43-126.67-29.31-23.97-6.66-50.63-15.03-74.39-22.82-24.47-8.14-48.81-17.86-72.41-28.24-58.65-26.31-115.02-58.78-173.03-85.84-18.78-8.91-38.86-18.12-57.96-26.28-85.91-38.33-180.81-57.68-262.53-105.81-14.71-8.47-29.48-18.09-43.5-27.62-78.05-53.61-150.97-116.78-206.96-193.73-5.06-7.18-9.97-14.38-14.5-22.14l6.86-7.28h0Z"/>
    </g>
    <g>
      <path class="cls-16" d="M10220.26,6747.54s659.32-82.94,1011.34-644.39"/>
      <path class="cls-18" d="M10219.78,6743.72c46.81-21.36,95.28-39.82,143.23-57.83,32.65-12.11,65.14-23.97,97.96-35.32,63.03-22.2,131.15-29.55,192.87-55.99,56.22-23.53,105.9-59.73,151.52-99.74,12.03-10.38,24-20.87,36.08-31.17,18.46-15.96,39.24-32.82,57.64-48.82,32.76-28.43,77.92-71.9,110.1-101.81,25.03-23.23,50.59-46.96,75.16-70.65,34.3-32.85,68.14-66.77,101.89-100.26,5.9-6.05,14.63-14.54,20.76-20.53,6.97-6.99,13.95-13.81,21.34-20.49,0,0,6.51,4.08,6.51,4.08-2.01,6.36-4.22,12.61-6.5,18.84-6.71,18.4-15,37.1-23.69,54.66-5.7,11.84-12.2,23.67-18.59,35.08-36.2,63.22-81.28,121.56-133.77,172.11-32.19,30.82-68.14,58.15-104.67,83.61-14.24,9.72-30.8,21.02-45.36,30.11-16.85,10.26-34.26,20.06-51.97,28.72-20.54,10.3-41.86,19.52-62.82,28.9-29.36,12.76-59.93,26.86-88.4,41.41-11.59,5.81-23.04,11.85-34.37,18.16-57.18,31.4-110.04,73.02-171.85,95.81-74.19,26.68-152.93,42.62-232.02,41.86-13.41-.31-26.71-.99-40.08-3.11,0,0-.96-7.62-.96-7.62h0Z"/>
    </g>
    <g>
      <path class="cls-16" d="M5042.22,6111s438.35,499.43,1100.61,476.11"/>
      <path class="cls-18" d="M5045.1,6108.46c43.94,26.79,86.39,56.57,128.19,86.18,28.33,20.25,56.37,40.5,84.17,61.31,53.72,39.75,98,92.03,154.5,128.31,51.01,33.36,108.83,54.2,167.54,69.54,15.34,4.14,30.74,8.17,46.04,12.4,23.57,6.34,49.17,14.09,72.75,20.35,41.91,11.19,103.23,24.2,146.03,34.08,33.26,7.7,67.25,15.56,100.65,22.62,46.43,9.99,93.49,18.98,140.14,28.15,8.31,1.49,20.24,3.96,28.64,5.67,9.69,1.85,19.26,3.81,28.93,6.18,0,0,.27,7.68,.27,7.68-6.39,1.9-12.81,3.58-19.25,5.18-19,4.76-39.13,8.39-58.54,11.03-13,1.92-26.44,3.17-39.47,4.27-72.64,5.48-146.23,.85-217.52-14.26-43.57-9.37-86.35-23.81-127.92-39.79-16.03-6.34-34.67-13.72-50.37-20.68-17.95-8.2-35.82-17.12-52.92-26.93-20.04-11.24-39.64-23.72-59.15-35.81-27.03-17.16-55.84-34.56-83.86-49.98-11.31-6.34-22.74-12.43-34.31-18.28-58.06-29.74-122.17-50.17-175.69-88.58-63.69-46.48-121.04-102.74-164.75-168.65-7.27-11.28-14.16-22.67-19.9-34.93,0,0,5.77-5.07,5.77-5.07h0Z"/>
    </g>
    <g>
      <path class="cls-16" d="M9912.43,6479.67s440.81-63.19,676.16-490.9"/>
      <path class="cls-18" d="M9912.04,6476.96c32.31-15.78,65.49-29.85,98.42-43.81,24.31-10.07,48.69-20.51,73.18-30,24.93-9.58,50.44-16.3,76.14-24.2,25.74-7.88,50.55-18.31,73.3-32.63,30.61-18.44,57.08-43.05,82.07-68.42,18.39-18.85,37.78-37.33,56.29-55.89,17.88-18,36.4-38.74,53.61-57.48,48.06-51.38,95.48-104.1,142.37-156.92,6.17-6.71,12.15-13.58,18.76-20.16l4.8,2.64c-2.78,11.14-6.32,22.42-10.24,33.22-10.16,28.15-23.26,55.59-38.31,81.44-23.26,39.99-51.18,77.48-84.17,109.98-26.56,25.73-55.19,49.38-85.18,70.96-33.82,23.81-72,41.12-107.88,61.22-19.5,10.93-39.67,22.75-58.14,35.29-26.71,17.79-52,38.51-80.11,54.14-16.04,9.07-33.04,16.3-50.45,22.3-47.95,16.47-98.64,27.16-149.58,25.08-4.69-.24-9.35-.61-14.11-1.32l-.78-5.43h0Z"/>
    </g>
    <g>
      <path class="cls-16" d="M5747.31,6046.05s305.91,323.62,791.05,269.12"/>
      <path class="cls-18" d="M5749.3,6044.17c31.53,17.29,62.17,36.27,92.56,55.12,22.24,14.05,44.84,27.94,66.73,42.47,22.2,14.84,42.41,31.8,63.69,48.23,21.28,16.47,44.12,30.73,68.94,41.06,8.02,3.41,16.75,6.8,24.99,9.53,29.4,10.05,60.78,15.11,91.39,20.23,21.73,3.58,43.38,7.92,64.98,11.55,25.01,4.23,52.65,7.38,77.88,10.63,69.69,9.61,140.11,17.94,210.31,25.77,9.04,1.17,18.1,2.09,27.29,3.69l.61,5.45c-10.7,4.16-21.96,7.77-33.04,10.8-28.85,7.94-58.83,13.07-88.62,15.69-46.08,4.07-92.81,2.89-138.4-5.31-36.34-6.86-72.17-16.59-107.1-28.64-38.96-13.89-75.12-35.09-112.23-52.8-20.17-9.62-41.46-19.28-62.36-27.13-29.94-11.56-61.46-20.26-90.43-34.21-25.03-11.78-47.72-27.86-69.34-44.99-32.31-26.11-62.18-55.95-84.75-91.07-2.51-3.97-4.9-7.98-7.06-12.29l3.98-3.77h0Z"/>
    </g>
    <g>
      <path class="cls-16" d="M10155.12,5988.77s-332.95,75.15-485.37,389.87"/>
      <path class="cls-18" d="M10155.56,5990.73c-40.55,23.17-81.98,43.26-124.08,63-18.09,8.21-36.88,14.2-55.62,21.15-25.15,8.98-48.59,21.96-69.31,38.75-23.36,18.56-42.62,41.83-63.04,63.33-25.01,25.57-47.89,53.35-70.95,80.45-16.97,19.59-33.62,39.51-50.31,59.82-12.42,15.35-25.07,31.11-37.57,46.58-4.33,5.2-8.47,10.55-13.11,15.71l-3.62-1.75c2.76-13.56,6.65-26.79,11.35-39.7,10.53-29.11,24.86-56.85,41.92-82.67,13.21-20.16,28.45-39.04,45.44-56.14,19.56-19.31,40.04-37.74,62.29-53.87,33.57-23.28,70.58-41,103.6-65,25-17.5,47.63-39.27,74.41-54.34,20.87-11.69,43.4-20.13,66.25-27.08,23.02-6.73,46.87-11.54,70.95-12.3,3.48-.09,6.95-.1,10.52,.14l.89,3.92h0Z"/>
    </g>
    <g>
      <path class="cls-16" d="M6410.6,5944.53s151.45,214.9,464.25,215.97"/>
      <path class="cls-18" d="M6411.99,5943.55c26.5,19.76,51.49,40.42,77.05,61.05,12.7,10.09,24.69,20.96,36.14,32.45,7.77,7.73,15.57,15.59,24.04,22.54,8.37,7.08,17.53,13.16,27.08,18.52,12.03,6.56,24.67,11.92,37.7,16.14,16.92,5.25,34.14,9.55,51.18,14.31,26.91,8.35,54.77,13.63,82.01,20.27,15.66,3.63,31.4,7.46,47.09,11.13,7.97,1.68,15.92,3.45,23.84,5.41,7.57,1.62,16.57,3.53,24.1,5.38,10.91,2.62,21.81,4.72,32.62,8.04,0,0-.01,3.41-.01,3.41-13.8,3.32-27.83,5.78-41.99,6.83-8.33,.71-17.18,1.35-25.46,1.23-31.21,.34-62.55-3.26-92.64-11.69-2.31-.59-5.85-1.67-8.17-2.45-10.65-3.42-21.68-7.28-32.07-11.51-7.66-2.9-16.1-6.48-23.47-9.99-18-8.37-34.54-19.44-51.17-30.17-14.13-8.98-28.41-17.69-43.2-25.54-24.68-13.22-52.32-22.81-74.47-40.33-22.24-17.59-41.75-38.69-57.31-62.42-6.15-9.69-11.88-19.73-15.69-30.64,0,0,2.79-1.96,2.79-1.96h0Z"/>
    </g>
    <g>
      <path class="cls-16" d="M9699.98,5909.09s-241.62,61.72-348.12,338.36"/>
      <path class="cls-18" d="M9700.38,5910.66c-17.81,11.35-35.59,21.76-53.62,32.27-15.53,8.9-30.66,18.28-46.56,26.46-16.03,8.44-33.21,14.7-48.97,23.67-13.66,7.54-25.91,17.35-37.01,28.26-14.79,14.6-26.42,32-38.77,48.59-5.76,8.26-12.42,16.42-18.18,24.71-19.11,27.12-36.86,54.79-55.69,82.05-5.9,8.43-11.24,17.22-17.18,25.64-4,6.16-8.72,13.49-12.9,19.53-5.99,8.76-11.56,17.75-18.14,26.19,0,0-3.01-1.16-3.01-1.16,1.41-10.66,3.25-21.34,5.97-31.75,2.02-7.32,4.48-16.05,6.87-23.18,8.04-22.85,18.2-44.93,30.83-65.62,9.89-16.05,21.6-30.96,34.15-45,7.02-7.78,14.6-16.23,22.21-23.39,7.68-7.5,16.11-14.31,24.63-20.82,19.16-14.24,38.66-28.19,56.6-43.97,13.82-11.99,27.28-26.43,41.24-38.26,18.6-15.58,40.65-26.31,63.26-34.79,17.76-6.37,36.29-11.2,55.21-12.43,2.73-.17,5.46-.25,8.27-.14l.8,3.13h0Z"/>
    </g>
    <g>
      <path class="cls-16" d="M6950.23,5898.72s91.49,156.13,284.09,180.09"/>
      <path class="cls-18" d="M6951.18,5898.16c10.72,9.6,21.07,19.99,31.19,30.13,9.87,10.18,20.08,19.93,29.16,30.87,9.06,10.91,17.34,23.13,28.17,32.61,16,14.6,36.13,23.36,55.9,31.66,10.16,4.58,21.2,9.51,31.58,13.66,18.92,7.1,37.65,14.62,56.55,21.8,5.8,2.19,11.72,4.2,17.5,6.5,7.68,2.57,15.25,5.59,22.92,8.26,3.43,1.25,6.87,2.6,10.32,4.08l-.27,2.18c-14.83,1.69-29.8,1.47-44.54-.49-8.8-.95-17.46-2.85-26.1-4.75-5.83-1.62-11.71-3.16-17.43-5.12-15.67-5.39-30.99-13.25-45.24-21.71-7.98-4.65-15.77-9.95-22.93-15.76-17.04-14.14-33.2-29.11-51.75-40.99-9.21-6.17-18.91-11.82-27.54-18.85-11.51-9.35-20.98-20.95-29.49-33.02-8.37-12.3-15.88-25.48-19.88-39.94,0,0,1.9-1.11,1.9-1.11h0Z"/>
    </g>
    <path class="cls-18" d="M7323.25,5865.1c12.24,1.11,22.52,6.49,31.48,14.13,16.35,14.2,4.75,30.14,33.43,42.14,5.29,2.24,10.5,4.39,15.11,7.68,0,0,4.39,3.19,4.39,3.19,5.81,4.23,11.72,8.42,16.36,13.94,4.62,5.46,8.48,11.66,11.77,18.42,3.4,7.32,6.06,14.62,7.03,23.04,0,0-2.29,2.23-2.29,2.23-15.42-2.39-29.51-9.94-40.99-19.81-6.7-5.94-11.48-13.89-16.62-21.17-5.33-7.61-7.18-17.67-12.36-25.32-7.71-11.75-16.81-11.58-28.14-17.4-6.47-3.67-10.53-9.72-14.32-15.93-3.93-7.08-6.64-14.25-7.16-22.92,0,0,2.29-2.23,2.29-2.23h0Z"/>
    <path class="cls-18" d="M7615.6,5865.1c12.24,1.11,22.52,6.49,31.48,14.13,16.35,14.2,4.75,30.14,33.43,42.14,5.29,2.24,10.5,4.39,15.11,7.68,0,0,4.39,3.19,4.39,3.19,5.81,4.23,11.72,8.42,16.36,13.94,4.62,5.46,8.48,11.66,11.77,18.42,3.4,7.32,6.06,14.62,7.03,23.04,0,0-2.29,2.23-2.29,2.23-15.42-2.39-29.51-9.94-40.99-19.81-6.7-5.94-11.48-13.89-16.62-21.17-5.33-7.61-7.18-17.67-12.36-25.32-7.71-11.75-16.81-11.58-28.14-17.4-6.47-3.67-10.53-9.72-14.32-15.93-3.93-7.08-6.64-14.25-7.16-22.92,0,0,2.29-2.23,2.29-2.23h0Z"/>
    <path class="cls-18" d="M7821.71,5846.7c12.24,1.11,22.52,6.49,31.48,14.13,16.35,14.2,4.75,30.14,33.43,42.14,5.29,2.24,10.5,4.39,15.11,7.68,0,0,4.39,3.19,4.39,3.19,5.81,4.23,11.72,8.42,16.36,13.94,4.62,5.46,8.48,11.66,11.77,18.42,3.4,7.32,6.06,14.62,7.03,23.04,0,0-2.29,2.23-2.29,2.23-15.42-2.39-29.51-9.94-40.99-19.81-6.7-5.94-11.48-13.89-16.62-21.17-5.33-7.61-7.18-17.67-12.36-25.32-7.71-11.75-16.81-11.58-28.14-17.4-6.47-3.67-10.53-9.72-14.32-15.93-3.93-7.08-6.64-14.25-7.16-22.92,0,0,2.29-2.23,2.29-2.23h0Z"/>
    <path class="cls-18" d="M8100.02,5824.01c8.14,9.2,11.93,20.17,13.2,31.89,2.12,21.62-17.22,25.23-4.6,53.59,2.31,5.26,4.63,10.4,5.72,15.96,0,0,1,5.33,1,5.33,1.33,7.06,2.75,14.17,2.34,21.37-.39,7.14-1.83,14.3-4.08,21.47-2.54,7.66-5.63,14.79-10.7,21.59,0,0-3.2,.05-3.2,.05-9.57-12.32-14.64-27.48-16.22-42.54-.8-8.92,1.18-17.98,2.44-26.8,1.35-9.19,6.9-17.78,8.38-26.9,2.47-13.77-4.29-20-8.52-31.97-2.19-7.11-.99-14.29,.52-21.41,2-7.85,4.95-14.92,10.52-21.58,0,0,3.2-.05,3.2-.05h0Z"/>
    <path class="cls-18" d="M8390.17,5840.79c1.1,12.24-2.35,23.32-8.28,33.5-11.04,18.63-28.8,10.07-35.48,40.43-1.25,5.6-2.44,11.12-4.86,16.24,0,0-2.36,4.89-2.36,4.89-3.12,6.47-6.19,13.04-10.79,18.59-4.55,5.52-9.95,10.43-16.02,14.87-6.59,4.66-13.3,8.57-21.41,11.04,0,0-2.61-1.85-2.61-1.85-.4-15.6,4.51-30.81,12.16-43.87,4.65-7.66,11.61-13.78,17.85-20.13,6.54-6.6,16.1-10.22,22.7-16.69,10.18-9.68,8.39-18.61,12.09-30.79,2.45-7.03,7.68-12.1,13.11-16.94,6.27-5.13,12.83-9.08,21.27-11.14,0,0,2.61,1.85,2.61,1.85h0Z"/>
    <path class="cls-18" d="M8652.07,5858.63c1.1,12.24-2.35,23.32-8.28,33.5-11.04,18.63-28.8,10.07-35.48,40.43-1.25,5.6-2.44,11.12-4.86,16.24,0,0-2.36,4.89-2.36,4.89-3.12,6.47-6.19,13.04-10.79,18.59-4.55,5.52-9.95,10.43-16.02,14.87-6.59,4.66-13.3,8.57-21.41,11.04,0,0-2.61-1.85-2.61-1.85-.4-15.6,4.51-30.81,12.16-43.87,4.65-7.66,11.61-13.78,17.85-20.13,6.54-6.6,16.1-10.22,22.7-16.69,10.18-9.68,8.39-18.61,12.09-30.79,2.45-7.03,7.68-12.1,13.11-16.94,6.27-5.13,12.83-9.08,21.27-11.14,0,0,2.61,1.85,2.61,1.85h0Z"/>
    <path class="cls-18" d="M8941.5,5875.68c1.1,12.24-2.35,23.32-8.28,33.5-11.04,18.63-28.8,10.07-35.48,40.43-1.25,5.6-2.44,11.12-4.86,16.24,0,0-2.36,4.89-2.36,4.89-3.12,6.47-6.19,13.04-10.79,18.59-4.55,5.52-9.95,10.43-16.02,14.87-6.59,4.66-13.3,8.57-21.41,11.04,0,0-2.61-1.85-2.61-1.85-.4-15.6,4.51-30.81,12.16-43.87,4.65-7.66,11.61-13.78,17.85-20.13,6.54-6.6,16.1-10.22,22.7-16.69,10.18-9.68,8.39-18.61,12.09-30.79,2.45-7.03,7.68-12.1,13.11-16.94,6.27-5.13,12.83-9.08,21.27-11.14,0,0,2.61,1.85,2.61,1.85h0Z"/>
    <path class="cls-18" d="M9307.73,5911.68c-2.99,21.03-14.2,40.18-28.36,55.36-4.45,4.86-9.43,8.97-15.4,11.93-5.95,3.08-12.88,5.09-19.62,7.3-10.07,3.18-18.89,7.33-26.16,14.54-12.55,11.4-17.94,28.74-26.52,42.97-2.95,5.14-8.08,11.29-11.76,15.93-4.09,5.12-8.12,10.31-12.43,15.2-20.13,23.45-58.56,42.77-89.36,46.11,0,0-3.71-4.07-3.71-4.07,1.42-7.62,3.86-14.55,6.67-21.51,10.09-23.86,26.41-48.07,47.48-63.22,5.26-3.83,10.8-7.37,16.28-10.97,5.01-3.28,11.55-7.74,16.95-10.24,6.03-2.99,12.64-5.36,19.13-7.84,20.58-7.51,34.8-18.49,42.99-39.32,4.13-9.67,7.92-19.22,15.1-26.67,12.01-11.64,26.49-20.02,42.57-25.37,7.14-2.25,14.78-3.98,22.45-4.2,0,0,3.71,4.07,3.71,4.07h0Z"/>
  </g>
  <g id="Puerta">
    <path class="cls-17" d="M9054.87,11127.03s134.59-2121.85-868.74-2121.85-856.5,2127.65-856.5,2127.65c285.46-17.84,570.96-27.3,856.5-28.38,289.54-1.09,579.12,6.43,868.74,22.57Z"/>
    <path class="cls-4" d="M8951.75,11117.37c3.45-246.75-5.51-455.05-16.06-612.55-24.92-371.95-65.63-563.3-110.12-713.49-22.89-77.28-59.4-186.25-130.77-309.72-51.6-89.26-97.92-169.39-189.23-242.74-46.64-37.47-163.32-131.21-319.44-133.51-207.38-3.05-352.54,157.18-415.89,227.13-162.48,179.36-209.04,384.01-238.6,541.43-52,276.94-106.27,699.9-84.67,1252.06,246.36-12.74,492.74-19.91,739.16-21.52,255.16-1.66,510.36,2.64,765.62,12.91Z"/>
    <circle class="cls-7" cx="7693.38" cy="10263.93" r="72.27"/>
  </g>
  <g id="ventana">
    <rect class="cls-17" x="7231.22" y="6769.36" width="1776.18" height="1662.3"/>
    <rect class="cls-14" x="7426.85" y="6949.49" width="577.79" height="540.75"/>
    <rect class="cls-14" x="8228.15" y="6955.78" width="577.79" height="540.75"/>
    <rect class="cls-14" x="7443.69" y="7698.21" width="577.79" height="540.75"/>
    <rect class="cls-14" x="8244.98" y="7704.49" width="577.79" height="540.75"/>
  </g>
</svg>