<?xml version="1.0" encoding="UTF-8"?>
<svg id="Capa_1" data-name="Capa 1" xmlns="http://www.w3.org/2000/svg" viewBox="0 0 13421.66 3729.93">
  <defs>
    <style>
      .cls-1 {
        stroke-width: 3.39px;
      }

      .cls-1, .cls-2, .cls-3, .cls-4, .cls-5, .cls-6 {
        stroke-miterlimit: 10;
      }

      .cls-1, .cls-2, .cls-4, .cls-5, .cls-6 {
        stroke: #1d1d1b;
      }

      .cls-1, .cls-4, .cls-5, .cls-7 {
        fill: #f8ecf4;
      }

      .cls-2 {
        stroke-width: 7.63px;
      }

      .cls-2, .cls-8 {
        fill: #bec0e1;
      }

      .cls-9, .cls-3, .cls-6 {
        fill: #612d76;
      }

      .cls-3 {
        stroke: #bec0e1;
        stroke-width: 14.5px;
      }

      .cls-4, .cls-6 {
        stroke-width: 3.9px;
      }

      .cls-5 {
        stroke-width: 2.79px;
      }
    </style>
  </defs>
  <g>
    <path id="M" class="cls-8" d="M5214.89,2185.93l-1.16,1388.09-602.08,1.23v-1388.09h-135.17l-.32,1388.09h-602.08V1488.19h1388.09s689.12,9.84,689.12,698.97v1388.09h-602.09l.69-1388.09-135.02-1.23Z"/>
    <path id="o" class="cls-8" d="M6769.54,2187.16h-698.97v1388.09h1388.09v-698.97c0-698.97-689.12-689.12-689.12-689.12Zm347.02,1041.07h-694.05v-694.05h349.48s344.56-4.92,344.56,344.56v349.48Z"/>
    <path id="r" class="cls-8" d="M8944.07,2876.28c0-698.97-689.12-689.12-689.12-689.12h-692.03l-6.94,1388.09h556.93v-212.27c62.87,70.76,125.75,141.52,188.62,212.27h642.53l-689.12-698.97h689.12Zm-874.4-199.55v-275.95h120.02s344.56-3.94,344.56,275.95h-464.58Z"/>
    <path id="a" class="cls-8" d="M10333.27,2442.29c-203.3-264.75-533.46-256.37-566.85-254.96h-689.12v540.22c229.71-.1,459.42-.21,689.12-.31v148.8h-689.12v699.38h1388.09v-698.97c2.87-59.26,4.89-255.73-132.12-434.16Zm-203.57,940.97h-726.56v-324.87h726.56v324.87Z"/>
    <path id="d" class="cls-8" d="M11579.41,1498.75l-1.13,1380.85c0-13.17-3.82-689.62-705.74-689.27l-331.74,.35v1388.09h1388.09V1498.75h-349.48Zm-239.72,1725.42h-528.66v-694.05l165.87-.18c30.54-1.34,133.14-2.01,227.22,70.06,129.72,99.37,135.2,254.26,135.58,274.9v349.26Z"/>
    <path id="a2" class="cls-8" d="M13288.77,2442.29c-203.3-264.75-533.46-256.37-566.85-254.96h-689.12v540.22c229.71-.1,459.42-.21,689.12-.31v148.8h-689.12v699.38h1388.09v-698.97c2.87-59.26,4.89-255.73-132.12-434.16Zm-203.57,946.39h-726.56v-324.87h726.56v324.87Z"/>
  </g>
  <path class="cls-7" d="M1818.27,1706.99c-142.46-4.23-249.85,16.53-291.26,25.45-65.63,14.13-178.16,39.31-298.55,111.43,0,0-96.49,57.8-168.17,136.25-11.27,12.33-25.05,27.41-40.45,50.11,0,0,0,0,0,0,0,0-34.14,46.95-44.96,79.32-142.7,427.28-159.73,658.15-159.73,658.15-13.2,179.02-59.36,433.61-208.21,752.25-12.21,61.43,.49,101.14,11.99,117.36,52.11,73.44,198.79,112.41,355.95,82.5,0,0,847.38-88.81,1690.76,0,139.54,22.84,274.3-10.33,336.54-80.35,14.71-16.55,23.93-33.54,29.55-49.62,11.1-31.79,7.65-59.52,6.42-69.88-18.52-156.65,7.62-179.28-35.45-350.04-52.83-209.44-95.56-188.94-144.31-372.93-55.8-210.59-24.26-329.69-90.03-484.72-42.34-99.8-103.87-185.91-103.87-185.91-12.88-18.01-29.61-40.11-50.28-64.45-11.11-13.09-43.25-50.23-86.75-89.9-9.01-8.21-83.19-75.17-180.71-130.25-218.12-123.18-456.88-132.64-528.48-134.77Z"/>
  <path class="cls-6" d="M2750.23,394.76s718.18,481.43,864.67,1113.47c13.22,57.05,0,106.04,0,106.04-9.21,34.13-26.32,59.95-40.79,77.49-11.07,13.53-28.79,30.68-54.27,37.74-32.85,9.1-60.18-3.67-93.3-13.66-4.5-1.36-47.95-7.05-134.84-18.44-50.3-6.59-180.49-23.01-318.43-37.21-49.47-5.09-252.55-25.8-480.01-39.37-291.24-17.38-518.88-16.31-675.02-16.31,0,0-304.33,.76-821.85,36.71-19.32,1.34-99.71,8.09-205.16,22.58-82.6,11.35-131.95,18.08-199.95,34.46-28.46,6.86-86.86,21.81-158.75,47.31-62.33,22.11-114.53,44.95-121.54,48.03-65.29,28.71-70.75,35.98-94.16,37.15-61.77,3.08-111.74-42.17-129.97-61.49-27.06-28.68-61.6-73.95-76.96-135.78-36.68-147.73,61.73-287.25,121.82-369.97C495.77,762.39,677.79,511.83,845.51,390.68,1093.65,211.44,1390.84-3.24,1818.66,2.05c491.38,6.07,830.37,298.3,931.57,392.72Z"/>
  <path class="cls-8" d="M231.14,1829.44c125.86,77.95,253.86,151.92,384,221.91,107.05,57.56,215.54,112.43,325.48,164.6,22.41-78.21,70.15-195.55,176.36-292.47,54.56-49.79,106.21-77.76,144.75-98.17,124.65-66.01,235.5-86.35,309.58-99.34,61.37-10.76,145.66-20.9,247.06-18.97,35.6,.68,119.82,2.48,217.11,21.87,70.93,14.14,271.71,56.69,463.29,218,111.67,94.02,184.94,198.7,232.42,285.93,103.7-22.39,256.93-68.25,420.35-168.7,183.1-112.55,301.09-245.74,368.3-334.59-406.95-61.16-727.76-88.79-949.23-102.67-349.49-21.9-655.51-22.19-752.35-22.33-104.14-.14-208.21,1.52-312.22,4.99-158.89,5.3-317.63,14.82-476.24,28.56-11.57,1-93.03,8.11-200.75,21.31-73.64,9.03-140.04,19.62-169.64,24.77-74.5,12.97-217.39,46.31-428.26,145.29Z"/>
  <path class="cls-4" d="M2226.83,1205.03c-36.71,153.28-474.14,232.9-570.61,95.47-39.03-55.61-14.12-135.16-5.76-161.84,37.16-118.65,163.55-215.69,305.81-203.93,168.11,13.9,293.54,174.37,270.57,270.3Z"/>
  <path class="cls-5" d="M1499.23,763.14c-1.74,70.01-122.72,137.45-229.12,137.54-79.4,.06-193.08-37.35-229.12-137.54-20.36-56.59-18.71-140.89,28.15-181.58,108.15-93.9,432.98,65.35,430.09,181.58Z"/>
  <path class="cls-4" d="M1066.15,1281.02c13.37,68.81-22.09,151.26-83.3,189.73-16.2,10.18-68.66,38.93-241.4-11.29-141.85-41.24-324.7-93.45-324.7-178.44,0-98.55,145.37-178.44,324.7-178.44,118.98,0,300.34,53.08,324.7,178.44Z"/>
  <path class="cls-1" d="M2090.4,537.1c83.92-111,249.17-169.6,400.12-126.07,157.95,45.56,300.33,203.97,270.97,320.25-15.69,62.16-78.67,105.2-142.46,148.79-55.93,38.22-96.61,66.02-147.34,62.83-66.79-4.2-77.95-57.51-175.24-132.86-135.78-105.16-239.71-98.63-251.14-168.82-6.55-40.23,23.07-75.01,45.08-104.12Z"/>
  <path class="cls-4" d="M3433.21,1512.17c-38.11,90.22-251.52,82.8-364.99,61.21-110.43-21.01-329.27-94.09-331.86-210.3-2.36-105.72,174.9-216.91,331.86-210.3,222.14,9.35,409.15,254.86,364.99,359.4Z"/>
  <path class="cls-9" d="M2418.07,3693.54s87.76-1383.59-566.47-1383.59-558.5,1387.37-558.5,1387.37c186.14-11.63,372.3-17.8,558.5-18.5,188.8-.71,377.63,4.19,566.47,14.72Z"/>
  <path class="cls-3" d="M2350.83,3687.25c2.25-160.9-3.59-296.72-10.47-399.42-16.25-242.54-42.8-367.31-71.81-465.25-14.93-50.39-38.73-121.45-85.27-201.96-33.65-58.21-63.85-110.45-123.39-158.28-30.41-24.43-106.49-85.56-208.29-87.05-135.23-1.99-229.88,102.49-271.19,148.1-105.95,116.96-136.31,250.4-155.58,353.05-33.91,180.58-69.29,456.38-55.21,816.43,160.64-8.31,321.3-12.98,481.98-14.03,166.38-1.08,332.79,1.72,499.23,8.42Z"/>
  <circle class="cls-2" cx="1530.29" cy="3130.75" r="47.12"/>
</svg>