<?xml version="1.0" encoding="UTF-8"?>
<svg xmlns="http://www.w3.org/2000/svg" viewBox="0 0 16383 16383">
  <defs>
    <style>
      .cls-1 {
        stroke-width: 8.7px;
      }

      .cls-1, .cls-2, .cls-3, .cls-4, .cls-5, .cls-6, .cls-7 {
        stroke-miterlimit: 10;
      }

      .cls-1, .cls-3, .cls-4, .cls-5, .cls-6, .cls-7 {
        stroke: #1d1d1b;
      }

      .cls-1, .cls-4, .cls-8, .cls-5 {
        fill: #f8ecf4;
      }

      .cls-2 {
        stroke: #bec0e1;
        stroke-width: 37.05px;
      }

      .cls-2, .cls-3, .cls-9 {
        fill: #612d76;
      }

      .cls-3, .cls-4 {
        stroke-width: 10px;
      }

      .cls-10, .cls-7 {
        fill: #bec0e1;
      }

      .cls-5 {
        stroke-width: 7.16px;
      }

      .cls-6 {
        fill: none;
        stroke-width: 30px;
      }

      .cls-7 {
        stroke-width: 19.5px;
      }
    </style>
  </defs>
  <g id="Morada">
    <g>
      <path id="M" class="cls-10" d="M3858.63,11811.36l-1.34,1612.8-699.55,1.43v-1612.8h-157.05l-.37,1612.8h-699.55v-2424.92h1612.8s800.68,11.44,800.68,812.12v1612.8h-699.56l.81-1612.8-156.88-1.43Z"/>
      <path id="o" class="cls-10" d="M5664.96,11812.79h-812.12v1612.8h1612.8v-812.12c0-812.12-800.68-800.68-800.68-800.68Zm403.2,1209.6h-806.4v-806.4h406.06s400.34-5.72,400.34,400.34v406.06Z"/>
      <path id="r" class="cls-10" d="M8191.5,12613.47c0-812.12-800.68-800.68-800.68-800.68h-804.05l-8.06,1612.8h647.09v-246.64c73.05,82.21,146.11,164.43,219.16,246.64h746.55l-800.68-812.12h800.68Zm-1015.95-231.85v-320.63h139.45s400.34-4.58,400.34,320.63h-539.79Z"/>
      <path id="a" class="cls-10" d="M9805.6,12109.22c-236.21-307.61-619.82-297.87-658.61-296.23h-800.68v627.68c266.89-.12,533.79-.24,800.68-.36v172.88h-800.68v812.6h1612.8v-812.12c3.33-68.86,5.69-297.13-153.51-504.45Zm-236.52,1093.3h-844.18v-377.46h844.18v377.46Z"/>
      <path id="d" class="cls-10" d="M11253.46,11012.93l-1.32,1604.39c0-15.3-4.43-801.26-819.98-800.86l-385.44,.41v1612.8h1612.8v-2416.74h-406.06Zm-278.53,2004.74h-614.24v-806.4l192.72-.2c35.48-1.55,154.69-2.33,264,81.4,150.72,115.45,157.08,295.42,157.53,319.4v405.8Z"/>
      <path id="a2" class="cls-10" d="M13239.54,12109.22c-236.21-307.61-619.82-297.87-658.61-296.23h-800.68v627.68c266.89-.12,533.79-.24,800.68-.36v172.88h-800.68v812.6h1612.8v-812.12c3.33-68.86,5.69-297.13-153.51-504.45Zm-236.52,1099.6h-844.18v-377.46h844.18v377.46Z"/>
    </g>
  </g>
  <g id="Tu">
    <g id="T">
      <path class="cls-6" d="M4687.19,13595.95h475.83s169.29,0,169.29,169.29"/>
      <line class="cls-6" x1="5009.75" y1="13595.95" x2="5009.75" y2="14241.07"/>
    </g>
    <path id="u" class="cls-6" d="M5332.31,13918.51v322.56h320.27v-172.43s23.12-152.42-160.14-152.42"/>
  </g>
  <g id="Segundo">
    <path id="S" class="cls-6" d="M6392.69,13918.51h-320.27v160.14h160.14s160.14,10.3,160.14,160.14h-320.29"/>
    <path id="e" class="cls-6" d="M6493.11,14088.37h325.09c0-168.14-167.24-169.86-167.24-169.86h-157.61v320.27h324.48"/>
    <g id="g">
      <path class="cls-6" d="M6883.72,13918.51h153.03s167.24,8.58,167.24,168.71v151.56h-320.27v-320.27Z"/>
      <polyline class="cls-6" points="7203.99 14238.79 7203.99 14416.08 6883.72 14416.08"/>
    </g>
    <path id="u-2" data-name="u" class="cls-6" d="M7286.65,13918.51v322.56h320.27v-172.43s23.12-152.42-160.14-152.42"/>
    <g id="n">
      <path class="cls-6" d="M7695.44,13884.2v366.6"/>
      <path class="cls-6" d="M7695.44,13918.51h154.18s166.1,0,166.1,160.14v168"/>
    </g>
    <path id="d-2" data-name="d" class="cls-6" d="M8444.16,13680.6v558.19h-324.85v-320.27h150.74c12.03,.45,84.86,4.36,134.65,64.99,32.43,39.49,38.13,82.39,39.46,99.72"/>
    <path id="o-2" data-name="o" class="cls-6" d="M8870.69,14238.79h-320.27v-320.27h160.14s160.14,0,160.14,160.14v160.14Z"/>
  </g>
  <g id="hogar">
    <g id="h">
      <line class="cls-6" x1="9286.21" y1="13705.48" x2="9286.21" y2="14256.8"/>
      <path class="cls-6" d="M9611.23,14256.8v-163.57s-3.91-161.28-164.38-161.28h-159.56"/>
    </g>
    <path id="o-3" data-name="o" class="cls-6" d="M10029.67,14252.23h-320.27v-320.27h160.14s160.14,0,160.14,160.14v160.14Z"/>
    <g id="g-2" data-name="g">
      <path class="cls-6" d="M10127.12,13931.95h153.03s167.24,8.58,167.24,168.71v151.56h-320.27v-320.27Z"/>
      <polyline class="cls-6" points="10447.39 14252.23 10447.39 14429.52 10127.12 14429.52"/>
    </g>
    <path id="a-2" data-name="a" class="cls-6" d="M10532.85,13931.95h148.46s171.82-4.58,171.82,160.14v164.71h-320.27v-164.71h320.27"/>
    <path class="cls-6" d="M10941.74,14265.38v-333.43h142.74s182.11,0,182.11,162.42c-84.31,0-168.63,0-252.94,0,84.31,54.14,168.63,108.29,252.94,162.43"/>
  </g>
  <g id="Hongo1">
    <path class="cls-8" d="M8093.35,6053.95c-365.28-10.83-640.63,42.4-746.8,65.26-168.27,36.24-456.81,100.79-765.5,285.7,0,0-247.41,148.2-431.2,349.35-28.89,31.62-64.22,70.28-103.71,128.49,0,0,0,0,0,0,0,0-87.55,120.38-115.27,203.39-365.9,1095.58-409.55,1687.52-409.55,1687.52-33.85,459.02-152.19,1111.8-533.87,1928.81-31.3,157.51,1.25,259.34,30.75,300.91,133.61,188.31,509.71,288.23,912.68,211.52,0,0,2172.73-227.7,4335.21,0,357.79,58.57,703.32-26.49,862.91-206.03,37.72-42.44,61.36-85.99,75.77-127.24,28.46-81.5,19.61-152.61,16.47-179.16-47.49-401.66,19.53-459.67-90.91-897.52-135.45-537.01-245.02-484.46-370.03-956.21-143.08-539.95-62.22-845.35-230.85-1242.84-108.57-255.9-266.33-476.68-266.33-476.68-33.02-46.17-75.92-102.84-128.92-165.25-28.5-33.56-110.89-128.79-222.42-230.5-23.1-21.06-213.3-192.74-463.36-333.96-559.28-315.84-1171.47-340.11-1355.06-345.55Z"/>
  </g>
  <g id="Hongo2">
    <path class="cls-3" d="M10482.96,2689.33s1841.45,1234.42,2217.07,2855c33.91,146.29,0,271.9,0,271.9-23.62,87.51-67.49,153.72-104.58,198.7-28.38,34.7-73.83,78.67-139.15,96.77-84.23,23.34-154.31-9.41-239.22-35.02-11.55-3.48-122.94-18.08-345.73-47.28-128.97-16.9-462.79-59.01-816.46-95.41-126.84-13.06-647.55-66.14-1230.78-100.96-746.75-44.57-1330.44-41.83-1730.78-41.83,0,0-780.32,1.95-2107.26,94.12-49.54,3.44-255.67,20.74-526.05,57.91-211.79,29.11-338.32,46.35-512.68,88.37-72.97,17.58-222.72,55.93-407.04,121.3-159.81,56.68-293.67,115.26-311.64,123.16-167.41,73.6-181.41,92.26-241.44,95.25-158.38,7.89-286.51-108.12-333.24-157.66-69.37-73.54-157.96-189.61-197.32-348.16-94.05-378.79,158.29-736.53,312.36-948.62,933.39-1284.9,1400.09-1927.35,1830.13-2237.98,636.25-459.59,1398.28-1010.03,2495.23-996.49,1259.93,15.56,2129.12,764.87,2388.6,1006.94Z"/>
  </g>
  <g id="Hongo3">
    <path class="cls-10" d="M4023.86,6367.93c322.7,199.88,650.9,389.54,984.61,568.99,274.47,147.6,552.66,288.27,834.55,422.03,57.45-200.54,179.87-501.41,452.21-749.92,139.89-127.65,272.34-199.39,371.15-251.72,319.62-169.26,603.83-221.41,793.78-254.72,157.35-27.6,373.49-53.59,633.48-48.64,91.29,1.74,307.23,6.35,556.67,56.09,181.88,36.27,696.67,145.35,1187.9,558.97,286.32,241.08,474.2,509.47,595.94,733.15,265.9-57.4,658.79-175,1077.81-432.56,469.47-288.57,772.02-630.08,944.34-857.9-1043.45-156.82-1866.01-227.67-2433.89-263.26-896.12-56.16-1680.77-56.91-1929.07-57.25-267.01-.37-533.86,3.9-800.55,12.8-407.39,13.6-814.43,38.01-1221.12,73.24-29.67,2.57-238.52,20.79-514.74,54.65-188.81,23.14-359.08,50.31-434.97,63.52-191.02,33.25-557.41,118.74-1098.09,372.53Z"/>
  </g>
  <g id="Hongo_4" data-name="Hongo 4">
    <path class="cls-4" d="M9140.93,4766.9c-94.12,393.01-1215.72,597.18-1463.09,244.79-100.08-142.57-36.2-346.55-14.77-414.96,95.29-304.22,419.35-553.04,784.11-522.89,431.05,35.63,752.65,447.1,693.75,693.06Z"/>
    <path class="cls-5" d="M7275.32,3633.88c-4.46,179.52-314.66,352.44-587.48,352.66-203.6,.16-495.06-95.76-587.48-352.66-52.21-145.11-47.98-361.24,72.19-465.57,277.3-240.75,1110.18,167.56,1102.78,465.57Z"/>
    <path class="cls-4" d="M6164.86,4961.74c34.29,176.42-56.64,387.85-213.6,486.48-41.54,26.1-176.05,99.82-618.96-28.95-363.72-105.75-832.55-239.62-832.55-457.53,0-252.69,372.75-457.53,832.55-457.53,305.08,0,770.08,136.1,832.55,457.53Z"/>
    <path class="cls-1" d="M8791.11,3054.3c215.18-284.61,638.89-434.88,1025.93-323.24,405,116.82,770.06,522.99,694.79,821.14-40.24,159.39-201.71,269.73-365.26,381.5-143.42,98.01-247.72,169.28-377.79,161.11-171.25-10.76-199.86-147.47-449.32-340.67-348.15-269.63-614.62-252.88-643.93-432.87-16.8-103.16,59.16-192.34,115.59-266.97Z"/>
    <path class="cls-4" d="M12234.16,5554.43c-97.73,231.33-644.92,212.31-935.85,156.96-283.16-53.87-844.27-241.25-850.92-539.23-6.05-271.08,448.45-556.17,850.92-539.23,569.58,23.97,1049.08,653.47,935.85,921.51Z"/>
  </g>
  <g id="Puerta">
    <path class="cls-9" d="M9578.08,11124.25s224.32-3536.42-1447.89-3536.42-1427.5,3546.09-1427.5,3546.09c475.76-29.73,951.59-45.5,1427.5-47.29,482.57-1.82,965.2,10.72,1447.89,37.62Z"/>
    <path class="cls-2" d="M9406.21,11108.15c5.75-411.25-9.18-758.42-26.77-1020.92-41.54-619.91-109.39-938.83-183.54-1189.16-38.15-128.81-98.99-310.42-217.95-516.19-86-148.77-163.21-282.31-315.38-404.57-77.73-62.45-272.2-218.68-532.4-222.51-345.64-5.09-587.56,261.97-693.16,378.54-270.8,298.93-348.39,640.02-397.66,902.38-86.67,461.56-177.11,1166.5-141.11,2086.77,410.6-21.23,821.24-33.19,1231.93-35.86,425.26-2.77,850.6,4.4,1276.03,21.52Z"/>
    <circle class="cls-7" cx="7308.93" cy="9685.75" r="120.45"/>
  </g>
</svg>