<?xml version="1.0" encoding="UTF-8"?>
<svg id="Capa_2" data-name="Capa 2" xmlns="http://www.w3.org/2000/svg" viewBox="0 0 661.47 762.88">
  <defs>
    <style>
      .cls-1 {
        fill: #1d1d1b;
      }
    </style>
  </defs>
  <g id="Capa_1-2" data-name="Capa 1">
    <path class="cls-1" d="M351.84,51.22h0m-21.39,82.93c7.92,6.4,17.42,10.76,27.68,12.5,37.35,6.35,64.94,23.92,78.94,34.69,24.07,22.4,42.3,47.99,54.21,76.09,9.71,22.91,11.27,37.81,17.94,113.11,1.62,18.29,3.46,39.03,5.8,63.91,10.81,114.71,15.48,138.04,20.9,158.47,6.33,23.87,14.38,47.25,24.09,70.04l-46.26-.07-147.93-.23h-.09c-12.21,0-24.01,3.72-33.9,10.5-9.9-6.82-21.72-10.58-33.97-10.6l-194.73-.31c10.01-22.51,18.41-45.64,25.15-69.3,12.79-44.88,16.71-87.7,23.22-158.64,3.85-42,5.63-72.62,7.06-97.22,2.79-48.04,3.89-61.51,12.89-83.41,11.51-28.03,29.94-53.43,54.77-75.52,13.77-9.96,40.61-26.06,76.41-31.78,10.27-1.64,19.82-5.9,27.8-12.23m.29-134.14c-22.65,0-41.01,27.82-41.01,62.14,0,8.89,1.23,17.33,3.45,24.98-53.71,8.58-90.86,33.99-104.62,44.25-21.21,18.51-52.61,50.85-72.6,99.5-19.72,48-12.85,74.22-24.2,197.95-6.61,72.12-10.15,108.97-21.18,147.68-18.82,66.06-48.71,115.02-70.58,145.58,99.26,.16,198.51,.31,297.77,.47-.2,1.55-.31,3.12-.31,4.72,0,19.67,15.35,35.61,34.28,35.61s34.28-15.94,34.28-35.61c0-1.57-.11-3.1-.3-4.61,98.58,.16,197.16,.31,295.74,.47-21.35-30.9-50.16-79.96-67.56-145.58-4.09-15.43-8.46-35.21-19.16-148.72-12.25-129.97-11.31-154.88-28.23-194.81-20.13-47.49-50-79.62-70.58-98.45-13.59-10.75-51.74-38.54-107.75-48.07,2.29-7.74,3.56-16.32,3.56-25.35,0-34.32-18.36-62.14-41.01-62.14h0Z"/>
  </g>
</svg>