<?xml version="1.0" encoding="UTF-8"?>
<svg id="Capa_2" data-name="Capa 2" xmlns="http://www.w3.org/2000/svg" viewBox="0 0 832.5 756.16">
  <defs>
    <style>
      .cls-1, .cls-2 {
        fill: none;
        stroke: #1d1d1b;
        stroke-miterlimit: 10;
        stroke-width: 60px;
      }

      .cls-2 {
        stroke-linecap: round;
      }
    </style>
  </defs>
  <g id="Capa_1-2" data-name="Capa 1">
    <g>
      <path class="cls-1" d="M730.75,345.26c-49.89,61.28-99.78,122.55-149.68,183.83-55.67,60.96-111.33,121.91-167,182.87-58.31-62.32-116.63-124.64-174.94-186.96-49.08-59.57-98.16-119.15-147.24-178.72"/>
      <path class="cls-2" d="M407.67,198.45c-16.65-83.53-80.34-148.55-160.51-163.72-15.56-2.94-78.99-12.95-137.02,18.96-43.86,24.12-60.8,59.08-67.54,73.53-23.72,50.92-7.81,104.51-1.73,126.21,13.71,48.95,40.35,82.68,58,101.33"/>
      <path class="cls-1" d="M407.67,198.45c8.14-80.25,72.89-146.2,158.26-163.72,82.23-16.88,176.66,12.61,215.93,69.51,21.5,31.16,20.48,65.4,20.64,82.66,.83,90.89-62.56,151.75-77.39,165.29"/>
    </g>
  </g>
</svg>