<?xml version="1.0" encoding="UTF-8"?>
<svg id="Capa_2" data-name="Capa 2" xmlns="http://www.w3.org/2000/svg" viewBox="0 0 732.37 848.2">
  <defs>
    <style>
      .cls-1 {
        fill: none;
        stroke: #1d1d1b;
        stroke-linecap: round;
        stroke-linejoin: round;
        stroke-width: 60px;
      }

      .cls-2 {
        fill: #1d1d1b;
      }
    </style>
  </defs>
  <g id="Capa_1-2" data-name="Capa 1">
    <path class="cls-1" d="M224.96,178.62c-30.16,14.72-78.79,43.64-120.62,96.8C31.25,368.29,29.34,471.02,30.1,504.07c2.19,28.92,13.15,125.96,91.94,208.88,96.05,101.08,220.46,104.96,243.79,105.25,21.89,.07,148.6-1.61,245.62-103.91,80.89-85.3,89.42-186.01,90.85-213.55,.67-33.54-.93-156.81-92.33-252.79-33.55-35.23-69.66-56.77-97.9-69.97"/>
    <path class="cls-2" d="M366.19,0c-15.99,0-30.53,9.66-36.77,24.47V371.62c6.16,15.26,20.87,25.19,36.83,25.19,.59,0,1.19-.01,1.79-.04,15.37-.72,29.07-10.58,34.91-25.15V24.47C396.77,9.78,382.39,.13,366.51,0c-.11,0-.21,0-.32,0h0Z"/>
  </g>
</svg>