<?xml version="1.0" encoding="UTF-8"?>
<svg id="Capa_1" data-name="Capa 1" xmlns="http://www.w3.org/2000/svg" viewBox="0 0 409.12 409.14">
  <path d="M409.01,46.2c0-4.1-.21-8.24-1.37-12.23C402.75,17.1,385.46-.04,362.85,0,257.25,.21,151.64,.09,46.04,.11c-6.7,0-13.26,.8-19.32,4.01C11.71,12.08,1.87,23.75,0,41.18V368.43c.88,3.84,1.08,7.8,2.67,11.52,3.37,7.89,8.41,14.52,15.09,19.74,6.9,5.39,14.52,9.36,23.68,9.04,1.35,.19,2.77-.42,4.05,.41H363.16c1.53-.84,3.19-.22,4.78-.41,3.46-.08,6.9-.38,10.18-1.59,15.38-5.67,31.04-22.11,31.01-43.72-.18-105.74-.07-211.48-.11-317.22Zm-49.84,331c-28.73,.03-57.46-.03-86.19,.07-2.6,0-3.27-.65-3.26-3.26,.09-41.23,.09-82.47,0-123.7,0-2.59,.64-3.29,3.25-3.27,14.36,.13,28.73,.02,43.09,.11,2.18,.01,3.13-.34,3.52-2.83,2.4-15.48,5.06-30.91,7.68-46.7h-26.07c-9.44,0-18.89-.07-28.33,.05-2.3,.03-3.2-.33-3.16-2.96,.18-10.24-.03-20.48,.1-30.72,.18-14.64,9.99-24.43,24.64-24.61,9.71-.12,19.42-.08,29.13,.02,2.14,.02,2.95-.39,2.94-2.77-.11-14.76-.06-29.53-.05-44.29,0-1.38,.17-2.58-1.94-2.5-14.86,.55-29.81-1.27-44.59,1.45-32.95,6.06-57.92,34.58-59.41,68.19-.51,11.55-.27,23.14-.15,34.71,.03,2.75-.58,3.54-3.44,3.51-13.7-.17-27.4,0-41.1-.14-2.74-.03-3.54,.57-3.51,3.43,.16,14.23,.15,28.46,0,42.7-.03,2.75,.58,3.54,3.43,3.51,13.7-.17,27.4,0,41.1-.14,2.74-.03,3.51,.57,3.51,3.43-.1,41.1-.1,82.2,0,123.3,0,2.73-.57,3.51-3.42,3.51-55.86-.09-111.73-.06-167.59-.08-10.85,0-17.41-6.54-17.41-17.38-.02-103.35-.02-206.7,0-310.05,0-10.82,6.57-17.35,17.43-17.35,103.35-.02,206.7-.02,310.05,0,10.79,0,17.29,6.6,17.29,17.49,.02,103.22,.02,206.44,0,309.65,0,11.12-6.48,17.62-17.55,17.64Z"/>
</svg>