<?xml version="1.0" encoding="UTF-8"?>
<svg id="Capa_1" data-name="Capa 1" xmlns="http://www.w3.org/2000/svg" viewBox="0 0 383.51 383.51">
  <defs>
    <style>
      .cls-1 {
        fill: #fefefe;
      }
    </style>
  </defs>
  <g>
    <path d="M383.46,91.44c0-4.84,0-9.75-1.02-14.5-7.07-33.2-26.09-56.79-57.16-70.55-8.97-3.97-18.44-5.84-28.2-6.39H85.31c-3.13,.79-6.4,.39-9.53,1.07C46.15,7.53,24.14,24.14,9.81,50.85,4.16,61.37,1.03,72.67,0,84.56v214.01c.99,3.98,.69,8.12,1.67,12.13,4.44,18.17,13.24,33.82,26.82,46.68,17.64,16.71,38.44,26.06,62.96,26.09,66.83,.08,133.65,.05,200.48-.02,5.58,0,11.18-.26,16.7-1.5,19.16-4.29,35.66-13.31,49.09-27.66,16.41-17.52,25.7-38.12,25.74-62.36,.09-66.83,.05-133.65,0-200.48Zm-38.62,196.28c-.31,28.59-18.83,50.73-46.84,56.12-3.41,.66-6.93,.98-10.4,.98-63.97,.06-127.95,.14-191.92,0-28.64-.06-50.75-18.55-56.35-46.56-.83-4.16-1.07-8.39-1.07-12.65,.02-31.43,.01-62.85,.01-94.28,0-31.67-.14-63.35,.05-95.02,.13-20.86,8.48-37.62,26.23-49.17,9.11-5.92,19.27-8.81,30.05-8.83,64.6-.1,129.19-.26,193.79,.03,32.31,.15,56.36,25.07,56.45,57.82,.13,47.51,.04,95.02,.03,142.54,0,16.34,.14,32.67-.04,49.01Z"/>
    <path class="cls-1" d="M344.84,96.18c-.09-32.75-24.15-57.67-56.45-57.82-64.6-.29-129.19-.13-193.79-.03-10.78,.02-20.95,2.91-30.05,8.83-17.76,11.54-26.11,28.3-26.23,49.17-.19,31.67-.05,63.35-.05,95.02,0,31.43,.01,62.85-.01,94.28,0,4.25,.24,8.48,1.07,12.65,5.6,28.01,27.72,46.49,56.35,46.56,63.97,.14,127.95,.06,191.92,0,3.47,0,7-.33,10.4-.98,28.01-5.39,46.53-27.53,46.84-56.12,.18-16.33,.04-32.67,.04-49.01,0-47.51,.1-95.02-.03-142.54Z"/>
  </g>
  <path d="M293.59,64.42c10.6,.1,19.31,8.99,19.06,19.48-.25,10.5-8.91,18.97-19.29,18.88-10.59-.1-19.31-9.01-19.06-19.48,.25-10.5,8.9-18.97,19.29-18.87Z"/>
  <g>
    <path d="M191.9,102.78c-53.64-.07-95.89,42.1-95.92,95.73-.02,53.63,42.21,95.87,95.83,95.83,53.63-.03,95.8-42.29,95.73-95.93-.07-53.49-42.14-95.56-95.64-95.63Zm-.28,153.3c-32.47-.07-57.5-25.27-57.38-57.76,.12-32.33,25.12-57.26,57.46-57.29,32.49-.03,57.59,25.06,57.58,57.56-.02,32.48-25.18,57.57-57.65,57.49Z"/>
    <path class="cls-1" d="M191.7,141.04c-32.34,.03-57.35,24.96-57.46,57.29-.12,32.49,24.91,57.68,57.38,57.76,32.47,.07,57.64-25.02,57.65-57.49,.02-32.5-25.08-57.59-57.58-57.56Z"/>
  </g>
</svg>