<?xml version="1.0" encoding="UTF-8"?>
<svg id="Capa_2" data-name="Capa 2" xmlns="http://www.w3.org/2000/svg" viewBox="0 0 616.99 728.21">
  <defs>
    <style>
      .cls-1 {
        fill: none;
        stroke: #1d1d1b;
        stroke-miterlimit: 10;
        stroke-width: 60px;
      }
    </style>
  </defs>
  <g id="Capa_1-2" data-name="Capa 1">
    <path class="cls-1" d="M584.56,231.76c-16.48-97.37-130.29-195.9-263.49-201.51C180.64,24.33,52.98,123.14,33.08,224.12c-6.96,35.31-1.19,62.06,8.17,101.32,23.55,98.73,69.69,113.28,177.36,273.6,44.6,66.4,60.01,98.63,90.21,99.17,27.26,.49,44.35-25.25,89.86-87.94,129.76-178.79,159.98-202.59,177.72-281,9.03-39.9,13.8-64.23,8.17-97.49Zm-276.75,145.38c-66,0-119.5-51.1-119.5-114.13s53.5-114.13,119.5-114.13,119.5,51.1,119.5,114.13-53.5,114.13-119.5,114.13Z"/>
  </g>
</svg>