<?xml version="1.0" encoding="UTF-8"?>
<svg id="Capa_2" data-name="Capa 2" xmlns="http://www.w3.org/2000/svg" viewBox="0 0 646.42 605.99">
  <defs>
    <style>
      .cls-1 {
        fill: none;
        stroke: #1d1d1b;
        stroke-linecap: round;
        stroke-miterlimit: 10;
        stroke-width: 60px;
      }

      .cls-2 {
        fill: #1d1d1b;
      }
    </style>
  </defs>
  <g id="Capa_1-2" data-name="Capa 1">
    <path class="cls-2" d="M229.07,60c44.65,0,86.77,18.33,118.61,51.63,32.54,34.02,50.46,79.45,50.46,127.91s-17.92,93.89-50.46,127.91c-31.84,33.29-73.96,51.63-118.61,51.63s-86.77-18.33-118.61-51.63c-32.54-34.02-50.46-79.45-50.46-127.91s17.92-93.89,50.46-127.91c31.84-33.29,73.96-51.63,118.61-51.63m0-60C102.56,0,0,107.24,0,239.54s102.56,239.54,229.07,239.54,229.07-107.24,229.07-239.54S355.58,0,229.07,0h0Z"/>
    <line class="cls-1" x1="395.6" y1="367.5" x2="616.42" y2="575.99"/>
  </g>
</svg>