<?xml version="1.0" encoding="UTF-8"?>
<svg id="Capa_2" data-name="Capa 2" xmlns="http://www.w3.org/2000/svg" viewBox="0 0 828 702.16">
  <defs>
    <style>
      .cls-1 {
        fill: none;
        stroke: #1d1d1b;
        stroke-linecap: round;
        stroke-linejoin: round;
        stroke-width: 60px;
      }

      .cls-2 {
        fill: #1d1d1b;
      }
    </style>
  </defs>
  <g id="Capa_1-2" data-name="Capa 1">
    <polygon class="cls-1" points="798 30 30 30 30 531.79 214.77 531.79 214.77 672.16 419.98 531.79 798 531.79 798 30"/>
    <path class="cls-2" d="M195.03,278.99c6.47,0,11.73,5.26,11.73,11.73s-5.26,11.73-11.73,11.73-11.73-5.26-11.73-11.73,5.26-11.73,11.73-11.73m0-60c-39.61,0-71.73,32.11-71.73,71.73s32.11,71.73,71.73,71.73,71.73-32.11,71.73-71.73-32.11-71.73-71.73-71.73h0Z"/>
    <path class="cls-2" d="M414,278.99c6.47,0,11.73,5.26,11.73,11.73s-5.26,11.73-11.73,11.73-11.73-5.26-11.73-11.73,5.26-11.73,11.73-11.73m0-60c-39.61,0-71.73,32.11-71.73,71.73s32.11,71.73,71.73,71.73,71.73-32.11,71.73-71.73-32.11-71.73-71.73-71.73h0Z"/>
    <path class="cls-2" d="M627.45,278.99c6.47,0,11.73,5.26,11.73,11.73s-5.26,11.73-11.73,11.73-11.73-5.26-11.73-11.73,5.26-11.73,11.73-11.73m0-60c-39.61,0-71.73,32.11-71.73,71.73s32.11,71.73,71.73,71.73,71.73-32.11,71.73-71.73-32.11-71.73-71.73-71.73h0Z"/>
  </g>
</svg>