<?xml version="1.0" encoding="UTF-8"?>
<svg id="Capa_2" data-name="Capa 2" xmlns="http://www.w3.org/2000/svg" viewBox="0 0 921.14 806.76">
  <defs>
    <style>
      .cls-1 {
        fill: none;
        stroke: #1d1d1b;
        stroke-linejoin: round;
        stroke-width: 60px;
      }
    </style>
  </defs>
  <g id="Capa_1-2" data-name="Capa 1">
    <path class="cls-1" d="M39.88,202.31c2.05,50.19,11.63,130.65,52.57,218.41,88.61,189.95,255.44,266.93,321.14,296.03,77.24,34.21,224.73,98.44,326.86,29.13,28.83-19.57,46.66-44.78,57.55-64.23,14.1,10.06,28.2,20.13,42.3,30.19,16.95-20.96,33.89-41.92,50.84-62.87-64.82-47.93-129.63-95.86-194.45-143.8-6.05,9.35-15.9,23.91-29.41,40.85-19.18,24.05-28.43,31.23-27.78,42.48,.31,5.36,3.37,20.31,38.82,35.79-13,14.29-26,28.57-38.99,42.86-69.21-26.08-172.48-74.46-276.45-164-94.2-81.12-154.21-166.08-190.37-226.8,10.28-13.56,20.56-27.12,30.84-40.68,9.39,5.1,18.79,10.19,28.18,15.29,15.13-23.88,30.25-47.75,45.38-71.63-63.11-49.78-126.23-99.56-189.34-149.35-19.19,27.67-38.38,55.34-57.57,83.01,15.25,10.89,30.5,21.79,45.75,32.68-11.96,18.87-23.92,37.75-35.87,56.62Z"/>
  </g>
</svg>