<?xml version="1.0" encoding="UTF-8"?>
<svg id="Capa_2" data-name="Capa 2" xmlns="http://www.w3.org/2000/svg" viewBox="0 0 632.78 716.63">
  <defs>
    <style>
      .cls-1 {
        stroke-linecap: round;
        stroke-linejoin: round;
      }

      .cls-1, .cls-2 {
        fill: none;
        stroke: #1d1d1b;
        stroke-width: 60px;
      }

      .cls-2 {
        stroke-miterlimit: 10;
      }
    </style>
  </defs>
  <g id="Capa_1-2" data-name="Capa 1">
    <ellipse class="cls-2" cx="321.52" cy="152.26" rx="169.45" ry="122.26"/>
    <path class="cls-1" d="M577.06,686.63H61.56c-12.81,0-23.28-6.12-23.28-13.6-2.73-68.39-5.46-136.77-8.19-205.16-.7-17.6,1.5-63.9,53.77-110.02,66.37-58.57,166.75-75.62,192.2-79.48,14.4-2.19,31.07-3.67,49.58-3.43,33.34,.43,61.54,6.3,82.79,12.59,64.88,18.74,112.29,48.28,137.11,72.63,15.47,15.18,36.62,42.51,45.74,65.74,1.46,3.72,2.41,6.56,3.01,8.28,9.91,28.69,9.33,53.34,7.22,69.53-.82,60.2-1.64,120.4-2.46,180.6-7.33,.77-14.66,1.54-21.99,2.31Z"/>
  </g>
</svg>